<svg width="1761" height="979" viewBox="0 0 1761 979" fill="none" xmlns="http://www.w3.org/2000/svg">
<g filter="url(#filter0_d_16_2)">
<path d="M94.959 0.499975V300C94.959 305 96.1257 308.667 98.459 311C101.126 313.333 106.792 314.5 115.459 314.5H152.459V362H88.959C75.6257 362 64.459 361 55.459 359C46.7923 357 39.1257 353 32.459 347C26.1257 340.667 21.1257 333.667 17.459 326C14.1257 318.333 11.459 306.833 9.45899 291.5C6.45899 268.5 4.95898 237.667 4.95898 199C4.95898 160 5.12565 132.5 5.45899 116.5C6.12565 100.5 7.45898 85 9.45899 70C11.459 54.6666 14.1257 43.3333 17.459 36C21.1257 28.3333 26.1257 21.5 32.459 15.5C39.1257 9.16666 46.7923 5.16666 55.459 3.5C64.459 1.49998 75.6257 0.499975 88.959 0.499975H94.959ZM114.959 165H202.959C235.626 165 251.959 180 251.959 210V314C251.959 334.667 250.292 347.833 246.959 353.5C243.959 359.167 234.959 362 219.959 362H172.459V227C172.459 221.667 171.626 218 169.959 216C168.626 213.667 164.959 212.5 158.959 212.5H114.959V165ZM114.959 0.499975H178.459C202.792 0.499975 221.126 4.66665 233.459 13C246.126 21.3333 252.459 35.8333 252.459 56.5V101.5C252.459 108.5 250.126 112 245.459 112H182.459C177.792 112 174.959 111.333 173.959 110C172.959 108.667 172.459 105.833 172.459 101.5V62.5C172.459 57.1667 171.626 53.5 169.959 51.5C168.626 49.1667 164.959 48 158.959 48H114.959V0.499975ZM311.029 112H368.029C373.363 112 377.696 113.833 381.029 117.5C384.363 121.167 386.029 126 386.029 132V309.5C386.029 314.833 387.196 318.667 389.529 321C392.196 323.333 397.863 324.5 406.529 324.5H435.529V362H365.529C329.196 362 311.029 344.167 311.029 308.5V112ZM545.529 358.5C545.529 360.833 544.696 362 543.029 362H492.529C477.863 362 466.696 358.5 459.029 351.5C451.696 344.167 448.029 334.833 448.029 323.5V112H505.029C510.363 112 514.696 113.833 518.029 117.5C521.363 121.167 523.029 126 523.029 132V305.5C523.029 315.833 525.196 321.667 529.529 323C531.863 324 535.029 324.5 539.029 324.5H541.529C544.196 324.5 545.529 325.667 545.529 328V358.5ZM654.455 112V203.5C654.455 209.167 655.288 213.167 656.955 215.5C658.622 217.5 662.955 218.5 669.955 218.5H697.955V256H633.955C597.622 256 579.455 238.167 579.455 202.5V167.5C579.455 145.5 584.955 130.833 595.955 123.5C607.288 115.833 626.788 112 654.455 112ZM655.455 283V309.5C655.455 315.167 656.288 319.167 657.955 321.5C659.622 323.5 663.955 324.5 670.955 324.5H697.955V362H634.955C598.622 362 580.455 344.167 580.455 308.5V293.5C580.455 288.5 580.955 285.667 581.955 285C583.288 284.333 584.122 284 584.455 284C584.788 283.667 585.622 283.5 586.955 283.5C588.622 283.167 589.622 283 589.955 283C611.955 283 633.788 283 655.455 283ZM712.955 218.5H733.455C769.788 218.5 787.955 236.333 787.955 272V306.5C787.955 328.5 782.288 343.333 770.955 351C759.955 358.333 740.622 362 712.955 362V218.5ZM669.455 112H732.455C768.788 112 786.955 129.833 786.955 165.5V191.5C764.622 191.5 747.622 191.5 735.955 191.5C724.288 191.5 718.288 191.5 717.955 191.5C717.622 191.167 716.955 191 715.955 191C715.288 190.667 714.788 190.333 714.455 190C714.122 189.667 713.788 189.333 713.455 189C713.122 188.333 712.955 187.667 712.955 187C712.288 184.333 711.955 182.333 711.955 181V164.5C711.955 158.833 711.122 155 709.455 153C707.788 150.667 703.455 149.5 696.455 149.5H669.455V112ZM966.373 358C966.373 360 965.373 361.333 963.373 362H925.373C901.04 362 883.373 357.167 872.373 347.5C861.373 337.833 855.873 320.833 855.873 296.5V150.5H830.373C822.04 150.5 817.873 145.5 817.873 135.5V112H855.873V0.499975H886.373C901.04 0.499975 912.04 4.16664 919.373 11.5C927.04 18.8333 930.873 28.1667 930.873 39.5V305.5C930.873 317.833 937.873 324 951.873 324H962.373C965.04 324 966.373 325.167 966.373 327.5V358ZM981.873 112V135.5C981.873 145.5 977.706 150.5 969.373 150.5H943.373V112H981.873ZM1136.17 149.5H1109.17C1098.83 149.5 1093 151.333 1091.67 155C1089.67 159.333 1088.67 165.5 1088.67 173.5V300.5C1088.67 301.167 1088.67 303.167 1088.67 306.5C1088.67 309.833 1089 312.667 1089.67 315C1091 321.333 1097.5 324.5 1109.17 324.5H1136.17V362H1087.67C1075 362 1064.67 361.5 1056.67 360.5C1048.67 359.167 1041.67 356.5 1035.67 352.5C1029.67 348.5 1025.17 344.167 1022.17 339.5C1019.17 334.5 1016.67 326.667 1014.67 316C1012.33 301 1011.17 280 1011.17 253C1011.17 226 1011.33 207.833 1011.67 198.5C1012 188.833 1012.5 178.667 1013.17 168C1014.17 157.333 1015.67 149.5 1017.67 144.5C1020 139.5 1022.83 134.5 1026.17 129.5C1029.83 124.167 1034.5 120.5 1040.17 118.5C1052.5 114.167 1068.33 112 1087.67 112H1136.17V149.5ZM1248.67 358.5C1248.67 360.833 1248 362 1246.67 362H1205.67C1187 362 1173.17 357.667 1164.17 349C1155.5 340.333 1151.17 326.167 1151.17 306.5V112H1171.67C1192.67 112 1207 117 1214.67 127C1222.33 136.667 1226.17 149.5 1226.17 165.5V305.5C1226.17 315.833 1228.33 321.667 1232.67 323C1235 324 1238.17 324.5 1242.17 324.5H1244.67C1247.33 324.5 1248.67 325.667 1248.67 328V358.5ZM1486.6 112V284C1486.6 321.333 1474.77 345 1451.1 355C1440.77 359.667 1427.77 362 1412.1 362H1394.1V324.5C1405.77 324.5 1411.6 316.167 1411.6 299.5V132.5C1411.6 118.833 1417.6 112 1429.6 112H1486.6ZM1286.6 112H1343.6C1355.6 112 1361.6 118.833 1361.6 132.5V299.5C1361.6 316.167 1367.44 324.5 1379.1 324.5V362H1361.1C1329.77 362 1309.1 353.333 1299.1 336C1290.77 322.333 1286.6 305 1286.6 284V112ZM1631.99 112H1680.49C1693.15 112 1703.49 112.667 1711.49 114C1719.49 115 1726.49 117.5 1732.49 121.5C1738.49 125.5 1742.99 130 1745.99 135C1748.99 139.667 1751.32 147.333 1752.99 158C1755.65 173 1756.99 194 1756.99 221C1756.99 248 1756.82 266.333 1756.49 276C1756.15 285.333 1755.49 295.333 1754.49 306C1753.82 316.667 1752.32 324.5 1749.99 329.5C1747.99 334.5 1745.15 339.667 1741.49 345C1738.15 350 1733.65 353.5 1727.99 355.5C1715.65 359.833 1699.82 362 1680.49 362H1679.49V173.5C1679.49 172.833 1679.49 170.833 1679.49 167.5C1679.49 164.167 1679.32 161.333 1678.99 159C1677.32 152.667 1670.65 149.5 1658.99 149.5H1631.99V112ZM1616.99 112V300.5C1616.99 301.167 1616.99 303.167 1616.99 306.5C1616.99 309.833 1617.32 312.667 1617.99 315C1619.32 321.333 1625.82 324.5 1637.49 324.5H1664.49V362H1615.99C1603.32 362 1592.99 361.5 1584.99 360.5C1576.99 359.167 1569.99 356.5 1563.99 352.5C1557.99 348.5 1553.49 344.167 1550.49 339.5C1547.49 334.5 1544.99 326.667 1542.99 316C1540.65 301 1539.49 280 1539.49 253C1539.49 226 1539.65 207.833 1539.99 198.5C1540.32 188.833 1540.82 178.667 1541.49 168C1542.49 157.333 1543.99 149.5 1545.99 144.5C1548.32 139.5 1551.15 134.5 1554.49 129.5C1558.15 124.167 1562.82 120.5 1568.49 118.5C1580.82 114.167 1596.65 112 1615.99 112H1616.99ZM211.574 657H165.074C159.741 657 157.074 658.333 157.074 661V971H104.574C93.2409 971 85.7409 969.167 82.0742 965.5C78.7409 961.833 77.0742 954.167 77.0742 942.5V638C77.0742 626.333 78.7409 618.667 82.0742 615C85.7409 611.333 93.2409 609.5 104.574 609.5H211.574V657ZM231.574 609.5H284.074C295.408 609.5 302.741 611.333 306.074 615C309.741 618.667 311.574 626.333 311.574 638V942C311.574 953.667 309.741 961.5 306.074 965.5C302.408 969.167 295.074 971 284.074 971H231.574V803.5H177.074V756H231.574V609.5ZM463.738 721H533.738C570.072 721 588.238 738.833 588.238 774.5V971H531.238C525.905 971 521.572 969.167 518.238 965.5C514.905 961.833 513.238 957 513.238 951V773.5C513.238 768.167 511.905 764.333 509.238 762C506.905 759.667 501.405 758.5 492.738 758.5H463.738V721ZM376.238 721H406.738C421.405 721 432.405 724.667 439.738 732C447.405 739 451.238 748.167 451.238 759.5V971H394.238C388.905 971 384.572 969.167 381.238 965.5C377.905 961.833 376.238 957 376.238 951V721ZM766.781 758.5H739.781C731.115 758.5 725.448 759.667 722.781 762C720.448 764.333 719.281 768.167 719.281 773.5V919C719.281 924 720.448 927.667 722.781 930C725.448 932.333 731.115 933.5 739.781 933.5H766.781V971H718.281C685.281 971 664.948 965.333 657.281 954C653.615 948.667 650.615 943.5 648.281 938.5C646.281 933.5 644.948 925.667 644.281 915C642.615 895.667 641.781 874.167 641.781 850.5C641.781 826.833 641.948 809.833 642.281 799.5C642.615 788.833 643.615 778.167 645.281 767.5C647.281 756.5 649.781 748.667 652.781 744C655.781 739 660.281 734.5 666.281 730.5C672.281 726.5 679.281 724 687.281 723C695.281 721.667 705.615 721 718.281 721H766.781V758.5ZM781.781 609.5H812.281C826.948 609.5 837.948 613.167 845.281 620.5C852.948 627.5 856.781 636.667 856.781 648V932.5C856.781 943.833 852.948 953.167 845.281 960.5C837.948 967.5 826.948 971 812.281 971H781.781V609.5ZM967.824 721H1027.82C1029.82 721 1030.82 722.167 1030.82 724.5V755C1030.82 757.333 1029.49 758.5 1026.82 758.5H1004.32C996.324 758.5 991.658 760 990.324 763C988.991 767.333 988.324 772.167 988.324 777.5V932.5C988.324 943.833 984.491 953.167 976.824 960.5C969.491 967.5 958.491 971 943.824 971H913.324V776.5C913.324 756.833 917.658 742.667 926.324 734C935.324 725.333 949.158 721 967.824 721ZM1069.11 721.5H1099.61C1114.28 721.5 1125.28 725.167 1132.61 732.5C1140.28 739.5 1144.11 748.667 1144.11 760V971H1087.11C1081.78 971 1077.44 969.167 1074.11 965.5C1070.78 961.833 1069.11 957 1069.11 951V721.5ZM1072.61 615C1076.28 611.333 1086.94 609.5 1104.61 609.5C1122.28 609.5 1132.94 611.333 1136.61 615C1140.28 618.333 1142.11 628.333 1142.11 645C1142.11 661.667 1140.11 671.833 1136.11 675.5C1132.44 679.167 1121.94 681 1104.61 681C1087.28 681 1076.61 679.167 1072.61 675.5C1068.94 671.833 1067.11 661.667 1067.11 645C1067.11 628.333 1068.94 618.333 1072.61 615ZM1290.43 721H1338.93C1351.6 721 1361.93 721.667 1369.93 723C1377.93 724 1384.93 726.5 1390.93 730.5C1396.93 734.5 1401.43 739 1404.43 744C1407.43 748.667 1409.77 756.333 1411.43 767C1414.1 782 1415.43 803 1415.43 830C1415.43 857 1415.27 875.333 1414.93 885C1414.6 894.333 1413.93 904.333 1412.93 915C1412.27 925.667 1410.77 933.5 1408.43 938.5C1406.43 943.5 1403.6 948.667 1399.93 954C1396.6 959 1392.1 962.5 1386.43 964.5C1374.1 968.833 1358.27 971 1338.93 971H1337.93V782.5C1337.93 781.833 1337.93 779.833 1337.93 776.5C1337.93 773.167 1337.77 770.333 1337.43 768C1335.77 761.667 1329.1 758.5 1317.43 758.5H1290.43V721ZM1275.43 721V909.5C1275.43 910.167 1275.43 912.167 1275.43 915.5C1275.43 918.833 1275.77 921.667 1276.43 924C1277.77 930.333 1284.27 933.5 1295.93 933.5H1322.93V971H1274.43C1261.77 971 1251.43 970.5 1243.43 969.5C1235.43 968.167 1228.43 965.5 1222.43 961.5C1216.43 957.5 1211.93 953.167 1208.93 948.5C1205.93 943.5 1203.43 935.667 1201.43 925C1199.1 910 1197.93 889 1197.93 862C1197.93 835 1198.1 816.833 1198.43 807.5C1198.77 797.833 1199.27 787.667 1199.93 777C1200.93 766.333 1202.43 758.5 1204.43 753.5C1206.77 748.5 1209.6 743.5 1212.93 738.5C1216.6 733.167 1221.27 729.5 1226.93 727.5C1239.27 723.167 1255.1 721 1274.43 721H1275.43ZM1576.49 967.5C1576.49 969.833 1575.65 971 1573.99 971H1523.49C1504.82 971 1490.99 966.667 1481.99 958C1473.32 949.333 1468.99 935.167 1468.99 915.5V610H1499.49C1514.15 610 1525.15 613.667 1532.49 621C1540.15 628 1543.99 637.167 1543.99 648.5V914.5C1543.99 924.833 1546.15 930.667 1550.49 932C1552.82 933 1555.99 933.5 1559.99 933.5H1572.49C1575.15 933.5 1576.49 934.667 1576.49 937V967.5ZM1611.1 721.5H1641.6C1656.27 721.5 1667.27 725.167 1674.6 732.5C1682.27 739.5 1686.1 748.667 1686.1 760V971H1629.1C1623.77 971 1619.43 969.167 1616.1 965.5C1612.77 961.833 1611.1 957 1611.1 951V721.5ZM1614.6 615C1618.27 611.333 1628.93 609.5 1646.6 609.5C1664.27 609.5 1674.93 611.333 1678.6 615C1682.27 618.333 1684.1 628.333 1684.1 645C1684.1 661.667 1682.1 671.833 1678.1 675.5C1674.43 679.167 1663.93 681 1646.6 681C1629.27 681 1618.6 679.167 1614.6 675.5C1610.93 671.833 1609.1 661.667 1609.1 645C1609.1 628.333 1610.93 618.333 1614.6 615Z" fill="#de0c91"/>
</g>
<defs>
<filter id="filter0_d_16_2" x="0.958984" y="0.5" width="1760.03" height="978.5" filterUnits="userSpaceOnUse" color-interpolation-filters="sRGB">
<feFlood flood-opacity="0" result="BackgroundImageFix"/>
<feColorMatrix in="SourceAlpha" type="matrix" values="0 0 0 0 0 0 0 0 0 0 0 0 0 0 0 0 0 0 127 0" result="hardAlpha"/>
<feOffset dy="4"/>
<feGaussianBlur stdDeviation="2"/>
<feComposite in2="hardAlpha" operator="out"/>
<feColorMatrix type="matrix" values="0 0 0 0 0 0 0 0 0 0 0 0 0 0 0 0 0 0 0.25 0"/>
<feBlend mode="normal" in2="BackgroundImageFix" result="effect1_dropShadow_16_2"/>
<feBlend mode="normal" in="SourceGraphic" in2="effect1_dropShadow_16_2" result="shape"/>
</filter>
</defs>
</svg>
